<?xml version="1.0" encoding="UTF-8" standalone="no"?>

<svg width="512" height="512"
     viewBox="0 0 512 512"
     version="1.1"
     xmlns="http://www.w3.org/2000/svg"
     xmlns:svg="http://www.w3.org/2000/svg">
     <style>
      ellipse,
      rect{
        @media (prefers-color-scheme: light) {
          stroke: #3b8686;
        }
        @media (prefers-color-scheme: dark) {
          stroke: rgb(239, 218, 185);
        }
      }
      path{
         @media (prefers-color-scheme: light) {
            fill: #3b8686;
         }
         @media (prefers-color-scheme: dark) {
            fill: rgb(239, 218, 185);
         }   
      }
    </style>
    <g transform="matrix(0.9804499,-0.86431604,0.74687806,1.1346144,-177.84484,206.17375)"
       style="stroke-width:15;stroke-miterlimit:4;stroke-dasharray:none">
      <ellipse style="fill:none;stroke-width:15;stroke-miterlimit:4;stroke-dasharray:none"
               cx="296.49048" cy="247.87143"
               rx="171.8873" ry="77.201584" />
      <rect style="fill:none;stroke-width:15;stroke-miterlimit:4;stroke-dasharray:none"
            width="85.022224" height="0.71746033"
            x="39.149208" y="249.7238"
            ry="0.35873017" />
      <path style="stroke:none;stroke-width:15;stroke-linecap:butt;stroke-linejoin:miter;stroke-opacity:1;stroke-miterlimit:4;stroke-dasharray:none"
            d="m 390.43492,181.59682 c 6.69401,8.44946 9.14888,18.97664 10.25715,29.51429 0.93782,8.91702 2.52297,13.66641 1.08387,21.77874 0,0 0.21525,11.01288 -2.54076,11.99093 -3.63521,1.29006 -5.91138,-4.57919 -5.91138,-4.57919 0,0 0.46056,3.50387 0,0 -0.4534,-3.4495 -1.55827,-6.4918 -1.80635,-10.0127 -0.30544,-4.33518 -1.50003,-8.05783 -2.85118,-12.2777 -2.87477,-8.9784 -7.31592,-17.03829 -10.8758,-25.62389 -1.18393,-2.85535 -5.3364,-4.68098 -4.33333,-8.25714 0.56125,-2.001 11.18909,-4.07014 13.50793,-3.57461 1.18091,0.25236 2.31323,0.69418 3.46984,1.04127 z" />
      <path style="stroke:none;stroke-width:15;stroke-linecap:butt;stroke-linejoin:miter;stroke-opacity:1;stroke-miterlimit:4;stroke-dasharray:none"
            d="m 301.87302,173.40635 c 3.14507,11.4363 7.65697,22.36643 9.89524,34.06349 0.9627,5.03104 1.55388,10.29508 1.0127,15.40953 -0.52423,4.95427 -0.16663,8.96813 -0.85923,13.90478 -0.18153,1.29393 0.22995,5.6103 -2.71191,6.08825 -2.86548,0.46555 -5.51733,-2.91278 -5.51733,-2.91278 -1.04585,-1.80718 -1.13133,-7.77533 -1.87609,-9.72417 -3.83369,-10.03177 -1.8455,-12.21352 -4.78147,-22.56878 -0.6935,-2.44596 -1.9963,-4.62819 -2.60318,-7.08572 -0.71933,-2.91289 -0.59605,-6.38128 -1.94921,-9.10158 -1.42206,-2.85884 -9.49072,-13.66545 -9.31746,-16.90477 0.14122,-2.6401 13.92206,-4.13443 15.24127,-3.44444 1.22495,0.64069 2.31112,1.51746 3.46667,2.27619 z" />
      <path style="stroke:none;stroke-width:15;stroke-linecap:butt;stroke-linejoin:miter;stroke-opacity:1;stroke-miterlimit:4;stroke-dasharray:none"
            d="m 196.8381,185.17143 c 4.07361,-5.60775 7.01675,-5.25148 13.36508,-3.96508 14.30116,2.89793 14.81687,30.53098 15.09524,41.4127 0.11414,4.46202 -0.22641,9.65846 -1.64286,13.85437 -0.39015,1.15572 -3.20102,3.33383 -5.57857,0.0738 -4.56816,-6.2637 -1.81046,-12.0956 -5.13096,-19.84563 -1.80681,-4.2171 -3.45939,-9.01027 -4.62222,-13.45715 -0.5115,-1.95607 -0.76657,-3.97873 -1.37143,-5.91428 -0.91093,-2.91498 -4.47936,-6.64103 -4.47936,-9.62223" />
    </g>
</svg>
