<?xml version="1.0" encoding="UTF-8" standalone="no"?>

<svg width="512" height="512"
     viewBox="0 0 512 512"
     version="1.1"
     xmlns="http://www.w3.org/2000/svg"
     xmlns:svg="http://www.w3.org/2000/svg">
    <style>
      g{
        @media (prefers-color-scheme: light) {
          stroke: #3b8686;
        }
        @media (prefers-color-scheme: dark) {
          stroke: rgb(239, 218, 185);
        }
      }
    </style>
    <g transform="matrix(1.1456488,0,0,1.1124057,-35.110504,-36.757959)"
       style="fill:none;stroke-width:15;stroke-linecap:butt;stroke-linejoin:miter;stroke-miterlimit:4;stroke-dasharray:none;stroke-opacity:1">
      <path d="m 183.40077,457.95363 c 0,0 -77.7122,-172.66116 -43.76593,-172.41664 l 235.62013,-1.77657 c 41.93274,-0.57858 -44.79033,173.26179 -44.79033,173.26179 z" />
      <path d="m 137.95873,285.08888 c -7.65522,-0.53417 -6.86259,-6.06712 -7.65238,-12.13491 -0.92835,-7.13227 -2.25957,-14.47327 -4.04921,-21.44286 -2.52013,-9.81444 0.29061,-27.52303 -1.59407,-37.52793 -4.07493,-21.63184 -4.55494,-31.98077 11.71305,-47.84247 3.3851,-3.30054 4.9196,-11.21449 8.98737,-13.70579 3.83418,-2.34825 7.77645,-4.56764 11.63016,-6.89207 5.48323,-3.3073 11.45783,-5.84349 15.3873,-11.1492 4.93293,-6.66063 8.35854,-14.4821 12.7127,-21.51905 3.27744,-5.29681 7.06229,-10.26516 10.83492,-15.212695 1.46479,-1.920962 3.76327,-4.94643 5.59841,-6.630159 5.01556,-4.601746 14.6998,-8.008994 21.16667,-10.466667 10.71307,-4.0714 22.39041,-7.89603 34.05873,-6.501587 4.60275,0.55006 8.75245,2.076854 13.14762,3.446032 4.54797,1.41678 9.20801,2.435197 13.4,4.777777 2.28954,1.27945 4.24148,3.035442 6.5,4.355556 3.27322,1.913209 7.40385,2.282464 10.33016,4.779365 5.24225,4.473007 5.75194,12.257208 10.98095,16.836508 5.62515,4.92621 9.37448,5.16988 15.81905,8.35396 3.63603,1.79646 7.39117,4.47038 10.36666,7.24921 6.08293,5.68088 8.57984,13.04117 10.36508,20.96667 0.85678,3.80361 1.6913,7.22204 3.90159,10.53174 3.67767,5.50696 8.70373,9.59638 12.96508,14.56191 3.5721,4.16237 6.53243,9.20936 8.99365,14.0746 2.56405,5.06851 2.74419,11.49711 2.81746,17.09841 0.0306,2.33536 -0.47959,6.11065 0.93968,8.25715 5.27224,7.97367 17.20373,9.6544 19.10635,19.30793 1.92339,9.75891 -3.69289,19.42918 -8.30793,27.59683 -1.33457,2.3619 -3.75191,5.83861 -4.87461,8.64603 -1.4718,3.68041 -3.67532,7.30126 -2.90385,10.87717 0.36369,1.68581 -0.11157,5.34947 -2.49553,9.61259" />
      <path d="m 179.08577,123.83029 c 0.4455,1.19153 0.81631,2.41373 1.33651,3.5746 1.22698,2.73809 4.87238,4.47198 6.08354,7.2389 3.05679,6.98324 3.77504,13.41165 3.50053,20.91176 -0.18738,5.11964 -1.10837,12.15429 -0.50635,17.68254 1.00091,9.1912 3.68134,16.81163 8.09048,24.86667 2.08319,3.80579 4.52811,8.26892 7.80158,11.21428 5.81241,5.22983 14.36058,-9.94188 22.02181,-10.99811 8.06418,-1.11178 14.02296,-7.46358 22.18828,-8.14977 9.75479,-0.81977 21.67081,32.96732 31.42964,32.59691 10.40816,-0.39506 20.93143,-14.19469 31.2698,-15.30141 6.17994,-0.66156 12.66525,-9.89881 18.8661,-9.93485 2.60284,-0.0151 8.79734,8.6211 12.01644,9.9666 2.41545,1.0096 4.51064,3.13877 6.60952,4.61587 2.98847,2.10315 10.22267,4.97639 14.26667,5.46191 2.93506,0.35238 2.77306,-4.63398 4.91111,-6.11111 2.57198,-1.77693 5.39442,-0.87933 8.34444,-1.1381" />
    </g>
</svg>
