<?xml version="1.0" encoding="UTF-8" standalone="no"?>

<svg width="512" height="512"
     viewBox="0 0 512 512"
     version="1.1"
     xmlns="http://www.w3.org/2000/svg"
     xmlns:svg="http://www.w3.org/2000/svg">
     <style>
      g{
        @media (prefers-color-scheme: light) {
          stroke: #3b8686;
        }
        @media (prefers-color-scheme: dark) {
          stroke: rgb(239, 218, 185);
        }
      }
    </style>
   <g transform="matrix(0.95060397,0,0,0.98512333,19.960984,17.28464)"
      style="fill:none;stroke-width:15;stroke-linecap:round;stroke-linejoin:bevel;stroke-miterlimit:4;stroke-dasharray:none;stroke-opacity:1">
      <path d="m 445.47619,170.80317 c -4.20202,-10.38965 -13.64427,-17.16413 -21.38095,-24.96507 -11.64981,-11.74659 -22.87534,-23.82478 -36.19048,-33.73969 -10.42681,-7.76416 -21.7199,-13.627385 -32.93968,-20.088886 -5.91245,-3.404998 -8.82651,-5.620531 -14.30159,-9.88254 -2.88144,-2.243021 -5.4086,-5.004067 -8.88571,-6.368254 -4.45515,-1.747906 -9.70348,-1.673554 -14.37461,-2.342857 -24.01963,-3.441655 -52.45364,-1.087805 -73.24761,12.15873 -8.0965,5.15777 -12.6947,11.624695 -18.92699,18.526987 -1.266,1.4021 -3.41444,3.0078 -4.26349,4.8127 -2.45306,5.21468 -2.40304,14.03206 -3.68254,19.50158 -0.779,3.33001 -2.95642,6.99948 -4.40635,10.14286 -0.52516,1.13854 -0.52961,2.42965 -1.66349,3.18413 -5.73657,3.81706 -12.46539,6.41665 -18.49207,9.88254 -12.33662,7.09468 -24.07839,14.8825 -35.97142,22.62222 -6.49389,4.22607 -17.16991,8.81177 -21.52699,15.73333 -10.22289,16.23988 30.16159,29.08486 11.48572,49.86349 -11.87655,13.21377 -27.71904,23.34264 -42.76508,32.50477 -8.03909,4.89531 -35.614347,19.44852 -38.285717,30.16825 -0.981069,3.93685 0.347737,8.52303 1.155555,12.34921 3.179914,15.06145 9.553804,21.33815 21.961905,30.03492 5.358782,3.75594 10.178777,8.81657 15.095237,13.13333 3.16839,2.78192 5.22143,6.43452 8.16508,9.42857 6.39955,6.50914 14.09485,11.64144 23.33016,12.86984 11.10202,1.4767 23.04685,-2.30568 34.0254,-3.51111 19.32935,-2.12233 39.29472,-2.48127 58.51111,1.10794 13.2319,2.47143 23.34399,8.67988 34.02222,16.51111 3.48054,2.55256 6.40448,6.19683 10.40317,7.99683 3.0496,1.37276 8.15908,0.6986 11.26667,0.13015 13.58982,-2.48588 23.24907,-10.21494 33.0127,-19.56825 1.84007,-1.76274 3.28424,-4.51247 5.20317,-6.04762 1.03122,-0.82498 2.00081,-1.44879 2.74286,-2.53333 2.21234,-3.23342 16.53881,-8.52256 16.61587,-9.23175 0.42949,-3.95255 -4.92536,-16.36976 -6.06984,-20.86984 -2.41919,-9.51225 -1.97784,-14.0351 -2.26667,-23.67937 -0.0312,-1.04183 3.30707,-6.92996 4.18969,-7.73412 1.96871,-1.79371 5.95214,-3.49005 7.82936,-2.39286 5.59448,3.26983 7.99522,10.22038 13.50794,13.71746 4.61195,2.92566 26.2653,-1.55139 29.4,-4.74603 16.3149,-16.62685 15.09757,-41.53758 22.03492,-62.34286 1.40622,-4.2173 5.48626,-12.49343 10.0381,-14.30476 1.68247,-0.66951 11.6036,-0.64578 12.1365,-2.92381 2.03971,-8.71917 -7.4818,-27.27258 -5.27301,-35.49841 1.67937,-6.2542 10.08684,-6.40705 14.3746,-10.00953 2.039,-1.71311 3.79951,-4.11498 5.20318,-6.37142 2.08763,-3.35595 1.57283,-7.81938 -0.14604,-11.11746 -0.60311,-1.15724 -3.30621,-1.71927 -2.67301,-2.86032 0.61922,-1.11585 1.34815,-2.1672 2.02222,-3.2508 z" />
      <path d="m 324.55238,74.71746 c 3.30575,-8.56375 13.37686,-12.23274 21.31111,-15.666666 6.83607,-2.958636 14.09793,-7.175788 21.52699,-8.257143 12.89182,-1.876504 36.7066,6.722467 45.00317,16.838095 5.26374,6.417842 12.42315,18.151521 14.08572,26.2 1.06917,5.175873 -0.30546,10.565234 2.23809,15.469844 0.92045,1.77486 2.86479,3.33481 3.53968,5.33333 0.96302,2.85172 1.00746,5.97481 1.87937,8.84127 1.86534,6.13244 5.33663,13.21291 4.33333,19.76191 -0.34516,2.25306 -2.9421,3.43644 -3.90159,5.33015 -0.67705,1.33629 -0.80762,4.25459 -1.00952,4.61588" />
      <path d="m 80.466667,340.09206 c -2.099182,5.8025 -2.268875,12.08178 -3.250794,18.13969 -2.383778,14.70661 -8.168269,34.24036 1.806349,47.45714 7.907196,10.47736 31.291328,8.05266 42.980948,10.14286 8.94681,1.59976 17.5599,6.03351 26.58096,6.88888 6.11018,0.57937 11.64237,-2.77295 17.77143,-2.20952 6.01971,0.55338 9.60487,7.93398 15.89206,7.21587 12.68088,-1.44837 21.77771,-1.91818 32.81269,-7.48095 7.99809,-4.03186 16.6797,-9.51367 25.08572,-12.37936 3.68611,-1.25663 9.19828,-1.45311 12.48889,-3.82699 3.4292,-2.47385 8.19365,-5.81579 11.41111,-8.30476" />
   </g>
</svg>
