<?xml version="1.0" encoding="UTF-8" standalone="no"?>

<svg width="512" height="512"
     viewBox="0 0 512 512"
     version="1.1"
     xmlns="http://www.w3.org/2000/svg"
     xmlns:svg="http://www.w3.org/2000/svg">
     <style>
      g{
        @media (prefers-color-scheme: light) {
          stroke: #3b8686;
        }
        @media (prefers-color-scheme: dark) {
          stroke: rgb(239, 218, 185);
        }
      }
    </style>
    <g transform="matrix(1.0655634,0,0,1.0623848,-16.05416,-21.339812)"
       style="fill:none;stroke-width:9.39873551;stroke-linecap:butt;stroke-linejoin:round;stroke-miterlimit:4;stroke-dasharray:none;stroke-opacity:1">
      <path d="m 395.63492,135.50159 c 0,0 -162.59048,-42.300002 -278.80635,12.22222 M 266.61905,436.82857 116.82857,147.72381 c 0,0 78.88254,36.46984 156.53651,23.79365 M 266.61905,436.82857 395.63492,135.50159 C 98.401466,241.70801 101.79507,97.638756 266.61905,436.82857 Z" />
      <path d="m 178.53651,167.09524 c 10.04127,-60.46032 19.89167,-41.3442 45.33448,-32.02133 15.82531,5.79879 8.91631,36.6372 8.91631,36.6372 0,0 -3.20655,-73.270796 25.25529,-44.30003 22.66954,23.07488 27.53523,41.48784 27.53523,41.48784 0,0 -0.2707,-67.28947 21.61819,-41.87043 21.88889,25.41905 25.45581,27.32457 25.45581,27.32457" />
    </g>
</svg>
