<?xml version="1.0" encoding="UTF-8" standalone="no"?>

<svg width="512" height="512"
     viewBox="0 0 512 512"
     version="1.1"
     xmlns="http://www.w3.org/2000/svg"
     xmlns:svg="http://www.w3.org/2000/svg">
     <style>
      path{
        @media (prefers-color-scheme: light) {
          stroke: #3b8686;
        }
        @media (prefers-color-scheme: dark) {
          stroke: rgb(239, 218, 185);
        }
      }
    </style>
   <path style="fill:none;stroke-width:10;stroke-linecap:round;stroke-linejoin:round;stroke-miterlimit:4;stroke-dasharray:none;stroke-opacity:1"
         d="m 168.15698,406.50506 -38.02572,61.07547 M 342.45398,244.95932 c -99.15478,195.5033 -158.57675,171.5349 -178.43483,159.13082 -19.85808,-12.40408 -39.9511,-43.89507 -25.50476,-74.73592 m 18.08782,-76.34264 C 331.55785,20.924189 352.56563,23.589512 396.02466,56.998668 c 30.72835,23.622443 15.78295,201.038702 -46.75213,187.933842 -62.5351,-13.10486 -85.77362,-41.34227 -99.24889,6.24952 -13.47527,47.59177 -36.13781,84.72486 -49.99715,55.04513 -13.85934,-29.67974 -96.64274,65.85899 -79.73258,16.30436 16.91016,-49.55463 36.3083,-69.51994 36.3083,-69.51994 z" />
   <path style="fill:none;stroke-width:8.99752;stroke-linecap:round;stroke-linejoin:round;stroke-miterlimit:4;stroke-dasharray:none"
         d="m 251.64127,101.88889 -16.78189,7.33347 2.03997,-18.200276 z"
         transform="matrix(0.94146743,0.60821709,-0.62945202,0.90540141,197.11769,-123.35848)" />
   <path style="fill:none;stroke-width:8.99752;stroke-linecap:round;stroke-linejoin:round;stroke-miterlimit:4;stroke-dasharray:none"
         d="m 214.15238,172.84127 -9.01478,9.38246 -3.61806,-12.49825 z"
         transform="matrix(0.94146743,0.60821709,-0.62945202,0.90540141,197.11769,-123.35848)" />
   <path style="fill:none;stroke-width:8.99752;stroke-linecap:round;stroke-linejoin:round;stroke-miterlimit:4;stroke-dasharray:none"
         d="m 293.47936,174.9365 -15.78747,-3.22795 10.68923,-12.05838 z"
         transform="matrix(0.94146743,0.60821709,-0.62945202,0.90540141,197.11769,-123.35848)" />
   <path style="fill:none;stroke-width:8.99752;stroke-linecap:round;stroke-linejoin:round;stroke-miterlimit:4;stroke-dasharray:none"
         d="m 189.25079,317.1746 1.76007,8.67906 -8.39632,-2.81527 z"
         transform="matrix(0.94146743,0.60821709,-0.62945202,0.90540141,197.11769,-123.35848)" />
   <path style="fill:none;stroke-width:8.99752;stroke-linecap:round;stroke-linejoin:round;stroke-miterlimit:4;stroke-dasharray:none"
         d="m 201.30159,257.84128 -10.49649,5.01254 0.90727,-11.5965 z"
         transform="matrix(0.94146743,0.60821709,-0.62945202,0.90540141,197.11769,-123.35848)" />
</svg>
