<?xml version="1.0" encoding="UTF-8" standalone="no"?>

<svg width="512" height="512"
   viewBox="0 0 512 512"
   version="1.1"
   xmlns="http://www.w3.org/2000/svg"
   xmlns:svg="http://www.w3.org/2000/svg">
   <style>
      path,
      #r,
      #e{
          @media (prefers-color-scheme: light) {
              fill: #cff09e;
              stroke: #cff09e;
          }
          @media (prefers-color-scheme: dark) {
              fill: rgb(42, 39, 43);
              stroke: rgb(42, 39, 43);
          }
      }
      text{
          @media (prefers-color-scheme: light) {
              fill: #3b8686;
              stroke: #3b8686;
          }
          @media (prefers-color-scheme: dark) {
              fill: rgb(239, 218, 185);
              stroke: rgb(239, 218, 185);
          }
      }
      #s,
      #f{
         @media (prefers-color-scheme: light) {
             fill: #79bd9a;
             stroke: #79bd9a;
         }
         @media (prefers-color-scheme: dark) {
             fill: rgb(129, 192, 139);
             stroke: rgb(129, 192, 139);
         }
     }
  </style>
  <defs>
    <rect
       x="393.36072" y="159.86853"
       width="60.581758" height="57.216105"
       id="rect6" />
    <rect
       x="184.69022" y="284.3977"
       width="347.9244" height="92.976167"
       id="rect3" />
    <rect
       x="187.63517" y="192.26294"
       width="210.77404" height="72.782251"
       id="rect2" />
    <rect
       x="187.63518" y="192.26294"
       width="210.77403" height="72.782249"
       id="rect2-8" />
    <rect
       x="187.63518" y="192.26294"
       width="210.77403" height="72.782249"
       id="rect2-8-2" />
  </defs>
  <g>
    <path style="stroke-width:1.06311"
          d="M 44.871094 174.17188 C 24.673889 174.17188 8.4140625 190.4317 8.4140625 210.62891 L 8.4140625 317.77734 C 8.4140625 337.97455 24.673889 354.23438 44.871094 354.23438 L 464.18359 354.23438 C 484.3808 354.23438 500.64062 337.97455 500.64062 317.77734 L 500.64062 210.62891 C 500.64062 190.4317 484.3808 174.17188 464.18359 174.17188 L 44.871094 174.17188 z M 63.947266 186.79297 L 124.75781 186.79297 C 149.46337 186.79297 169.35156 206.68312 169.35156 231.38867 L 169.35156 298.70117 C 169.35156 323.40673 149.46337 343.29688 124.75781 343.29688 L 63.947266 343.29688 C 39.241712 343.29688 19.351562 323.40673 19.351562 298.70117 L 19.351562 231.38867 C 19.351562 206.68312 39.241712 186.79297 63.947266 186.79297 z " />
    <text
       xml:space="preserve"
       style="white-space:pre;shape-inside:url(#rect2);display:inline"
       transform="translate(-4.5242399,-6.938373)"><tspan
         x="187.63477"
         y="231.18979"
         id="tspan5"><tspan
           style="font-size:28px"
           id="tspan3">商品名</tspan></tspan></text>
    <text
       xml:space="preserve"
       style="font-size:28px;white-space:pre;shape-inside:url(#rect2-8);display:inline"
       transform="translate(87.283302,54.806659)"><tspan
         x="187.63477"
         y="221.13864"
         id="tspan7">個数</tspan></text>
    <text
       xml:space="preserve"
       style="font-size:28px;white-space:pre;shape-inside:url(#rect3);display:inline"
       transform="translate(-2.5242399,13.255546)"><tspan
         x="184.68945"
         y="313.2734"
         id="tspan8">1個: __円 合計: __円</tspan></text>
    <rect id="s"
       width="76.568611" height="40.38784"
       x="191.09778" y="244.96138"
       ry="15.145439" />
    <rect id="f"
       width="76.568611" height="40.38784"
       x="339.37057" y="245.21364"
       ry="15.145439" />
    <text
       xml:space="preserve" id="r"
       style="font-size:28px;white-space:pre;shape-inside:url(#rect2-8-2);display:inline"
       transform="translate(27.214837,54.859828)"><tspan
       x="187.63477" y="221.13864"> - </tspan></text>
    <text xml:space="preserve" id="e"
          style="font-size:28px;white-space:pre;shape-inside:url(#rect6);display:inline"
          transform="translate(-31.566146,87.720624)"><tspan
          x="388" y="188.74411"> + </tspan></text>
  </g>
</svg>
